# Created by Kenney (www.kenney.nl)

mtllib chest-retro.mtl

v 5 1 -2
v 5 0 -2
v 5 1 2
v 5 0 2
v 4 1 -2
v 4 1 2
v 4 0 2
v 4 0 -2
v -4 1 -2
v -4 0 -2
v -4 1 2
v -4 0 2
v -5 1 -2
v -5 1 2
v -5 0 2
v -5 0 -2
v 0 -2 -4
v 0 -3 -4
v 0 -2 4
v 0 -3 4
v -1 -2 -4
v -1 -2 4
v -1 -3 4
v -1 -3 -4
v 5 -2 -4
v 5 -3 -4
v 5 -2 4
v 5 -3 4
v 1 -2 -4
v 1 -2 4
v 1 -3 4
v 1 -3 -4
v -5 -2 -4
v -5 -2 4
v -5 -3 4
v -5 -3 -4
v 5 0 -3
v 5 -1 -3
v 5 0 3
v 5 -1 3
v 4 0 -3
v 4 0 3
v 4 -1 3
v 4 -1 -3
v -4 0 -3
v -4 -1 -3
v -4 0 3
v -4 -1 3
v -5 0 -3
v -5 0 3
v -5 -1 3
v -5 -1 -3
v 5 -1 -3.5
v 5 -2 -3.5
v 5 -1 3.5
v 5 -2 3.5
v 4 -1 -3.5
v 4 -1 3.5
v 4 -2 3.5
v 4 -2 -3.5
v -4 -1 -3.5
v -4 -2 -3.5
v -4 -1 3.5
v -4 -2 3.5
v -5 -1 -3.5
v -5 -1 3.5
v -5 -2 3.5
v -5 -2 -3.5
v 1 -4 -4
v 1 -4 4
v 0 -4 4
v 0 -4 -4
v -1 -4 4
v -1 -4 -4
v 5 -4 -4
v 5 -4 4
v -5 -4 4
v -5 -4 -4
v 3 -4 -4
v 3 -6 -4
v 3 -4 4
v 3 -6 4
v 2 -4 -4
v 2 -4 4
v 2 -6 4
v 2 -6 -4
v 5 -5 -4
v 5 -6 -4
v 5 -5 4
v 5 -6 4
v 3 -5 -4
v 3 -5 4
v 2 -5 -4
v 2 -5 4
v -5 -5 -4
v -5 -5 4
v -5 -6 4
v -5 -6 -4
v -2 -6 -4
v -2 -8 -4
v -2 -6 4
v -2 -8 4
v -3 -6 -4
v -3 -6 4
v -3 -8 4
v -3 -8 -4
v 5 -7 -4
v 5 -8 -4
v 5 -7 4
v 5 -8 4
v -2 -7 -4
v -2 -7 4
v -3 -7 -4
v -3 -7 4
v -5 -7 -4
v -5 -7 4
v -5 -8 4
v -5 -8 -4

vn 1 0 0
vn 0 1 0
vn 0 -1 0
vn -1 0 0
vn 0 0 -1
vn 0 0 1

vt -19.68504 19.68504
vt 19.68504 19.68504
vt -19.68504 -19.68504
vt 0 NaN
vt 0 0
vt 0 NaN
vt 0 NaN
vt 0 NaN
vt 0 NaN
vt 0 NaN
vt 19.68504 -19.68504
vt 0 NaN
vt 0 NaN
vt 0 NaN
vt 0 NaN
vt 0 NaN
vt 0 NaN
vt 0 NaN
vt 0 NaN
vt 0 NaN
vt 0 NaN
vt 0 NaN
vt 0 NaN
vt 0 NaN
vt 0 NaN
vt 0 NaN
vt 0 NaN
vt 0 NaN
vt 0 NaN
vt 0 NaN
vt 0 NaN
vt 0 NaN
vt 0 NaN
vt 0 NaN
vt 0 NaN
vt 0 NaN
vt 0 NaN
vt 0 NaN
vt 0 NaN
vt 0 NaN
vt 0 NaN
vt 0 NaN
vt 0 NaN
vt 0 NaN
vt 0 NaN
vt 0 NaN
vt 0 NaN
vt 0 NaN
vt 0 NaN
vt 0 NaN
vt 0 NaN
vt 0 NaN
vt 0 NaN
vt 0 NaN
vt 0 NaN
vt 0 NaN
vt 0 NaN
vt 0 NaN
vt 0 NaN
vt 0 NaN
vt 0 NaN
vt 0 NaN
vt 0 NaN
vt 0 NaN
vt 0 NaN
vt 0 NaN
vt 0 NaN
vt 0 NaN
vt 0 NaN
vt 0 NaN
vt 0 NaN
vt 0 NaN
vt 0 NaN
vt 0 NaN
vt 0 NaN
vt 0 NaN
vt 0 NaN
vt 0 NaN
vt 0 NaN
vt 0 NaN
vt 0 NaN
vt 0 NaN
vt 0 NaN
vt 0 NaN
vt 0 NaN
vt 0 NaN
vt 0 NaN
vt 0 NaN
vt 0 NaN
vt 0 NaN
vt 0 NaN
vt 0 NaN
vt 0 NaN
vt 0 NaN
vt 0 NaN
vt 0 NaN
vt 0 NaN
vt 0 NaN
vt 0 NaN
vt 0 NaN
vt 0 NaN
vt 0 NaN
vt 0 NaN
vt 0 NaN
vt 0 NaN
vt 0 NaN
vt 0 NaN
vt 0 NaN
vt 0 NaN
vt 0 NaN
vt 0 NaN
vt 0 NaN
vt 0 NaN
vt 0 NaN
vt 0 NaN
vt 0 NaN

usemtl color7

f 3/3/1 2/2/1 1/1/1
f 2/3/1 3/2/1 4/1/1
f 5/3/2 3/2/2 1/1/2
f 3/3/2 5/2/2 6/1/2
f 7/5/3 2/5/3 4/4/3
f 2/5/3 7/5/3 8/6/3
f 7/5/4 5/5/4 8/7/4
f 5/5/4 7/5/4 6/8/4
f 5/5/5 2/5/5 8/9/5
f 2/5/5 5/5/5 1/10/5
f 3/2/6 7/3/6 4/11/6
f 7/3/6 3/2/6 6/1/6
f 11/3/1 10/2/1 9/1/1
f 10/3/1 11/2/1 12/1/1
f 13/3/2 11/2/2 9/1/2
f 11/3/2 13/2/2 14/1/2
f 15/5/3 10/5/3 12/12/3
f 10/5/3 15/5/3 16/13/3
f 15/5/4 13/5/4 16/14/4
f 13/5/4 15/5/4 14/15/4
f 13/5/5 10/5/5 16/16/5
f 10/5/5 13/5/5 9/17/5
f 11/2/6 15/3/6 12/11/6
f 15/3/6 11/2/6 14/1/6
f 3/3/1 2/2/1 1/1/1
f 2/3/1 3/2/1 4/1/1
f 5/3/2 3/2/2 1/1/2
f 3/3/2 5/2/2 6/1/2
f 7/5/3 2/5/3 4/4/3
f 2/5/3 7/5/3 8/6/3
f 7/5/4 5/5/4 8/7/4
f 5/5/4 7/5/4 6/8/4
f 5/5/5 2/5/5 8/9/5
f 2/5/5 5/5/5 1/10/5
f 3/2/6 7/3/6 4/11/6
f 7/3/6 3/2/6 6/1/6
f 19/3/1 18/2/1 17/1/1
f 18/3/1 19/2/1 20/1/1
f 21/3/2 19/2/2 17/1/2
f 19/3/2 21/2/2 22/1/2
f 23/5/3 18/5/3 20/18/3
f 18/5/3 23/5/3 24/19/3
f 23/5/4 21/5/4 24/20/4
f 21/5/4 23/5/4 22/21/4
f 21/5/5 18/5/5 24/22/5
f 18/5/5 21/5/5 17/23/5
f 19/2/6 23/3/6 20/11/6
f 23/3/6 19/2/6 22/1/6

usemtl color1

f 6/3/1 8/2/1 5/1/1
f 8/3/1 6/2/1 7/1/1
f 9/3/2 6/2/2 5/1/2
f 6/3/2 9/2/2 11/1/2
f 12/12/3 8/6/3 7/5/3
f 8/6/3 12/12/3 10/5/3
f 12/5/4 9/5/4 10/24/4
f 9/5/4 12/5/4 11/25/4
f 9/17/5 8/9/5 10/5/5
f 8/9/5 9/17/5 5/5/5
f 6/2/6 12/3/6 7/11/6
f 12/3/6 6/2/6 11/1/6
f 27/3/1 26/2/1 25/1/1
f 26/3/1 27/2/1 28/1/1
f 29/3/2 27/2/2 25/1/2
f 27/3/2 29/2/2 30/1/2
f 31/5/3 26/5/3 28/26/3
f 26/5/3 31/5/3 32/27/3
f 31/5/4 29/5/4 32/28/4
f 29/5/4 31/5/4 30/29/4
f 29/5/5 26/5/5 32/30/5
f 26/5/5 29/5/5 25/31/5
f 27/2/6 31/3/6 28/11/6
f 31/3/6 27/2/6 30/1/6
f 22/3/1 24/2/1 21/1/1
f 24/3/1 22/2/1 23/1/1
f 33/3/2 22/2/2 21/1/2
f 22/3/2 33/2/2 34/1/2
f 35/5/3 24/19/3 23/5/3
f 24/19/3 35/5/3 36/32/3
f 35/5/4 33/5/4 36/33/4
f 33/5/4 35/5/4 34/34/4
f 33/5/5 24/22/5 36/35/5
f 24/22/5 33/5/5 21/5/5
f 22/2/6 35/3/6 23/11/6
f 35/3/6 22/2/6 34/1/6

usemtl color6

f 39/3/1 38/2/1 37/1/1
f 38/3/1 39/2/1 40/1/1
f 41/3/2 39/2/2 37/1/2
f 39/3/2 41/2/2 42/1/2
f 43/5/3 38/5/3 40/36/3
f 38/5/3 43/5/3 44/37/3
f 43/5/4 41/5/4 44/38/4
f 41/5/4 43/5/4 42/39/4
f 41/5/5 38/5/5 44/40/5
f 38/5/5 41/5/5 37/41/5
f 39/2/6 43/3/6 40/11/6
f 43/3/6 39/2/6 42/1/6
f 47/3/1 46/2/1 45/1/1
f 46/3/1 47/2/1 48/1/1
f 49/3/2 47/2/2 45/1/2
f 47/3/2 49/2/2 50/1/2
f 51/5/3 46/5/3 48/42/3
f 46/5/3 51/5/3 52/43/3
f 51/5/4 49/5/4 52/44/4
f 49/5/4 51/5/4 50/45/4
f 49/5/5 46/5/5 52/46/5
f 46/5/5 49/5/5 45/47/5
f 47/2/6 51/3/6 48/11/6
f 51/3/6 47/2/6 50/1/6
f 55/3/1 54/2/1 53/1/1
f 54/3/1 55/2/1 56/1/1
f 57/3/2 55/2/2 53/1/2
f 55/3/2 57/2/2 58/1/2
f 59/5/3 54/5/3 56/48/3
f 54/5/3 59/5/3 60/49/3
f 59/5/4 57/5/4 60/50/4
f 57/5/4 59/5/4 58/51/4
f 57/5/5 54/5/5 60/52/5
f 54/5/5 57/5/5 53/53/5
f 55/2/6 59/3/6 56/11/6
f 59/3/6 55/2/6 58/1/6
f 63/3/1 62/2/1 61/1/1
f 62/3/1 63/2/1 64/1/1
f 65/3/2 63/2/2 61/1/2
f 63/3/2 65/2/2 66/1/2
f 67/5/3 62/5/3 64/54/3
f 62/5/3 67/5/3 68/55/3
f 67/5/4 65/5/4 68/56/4
f 65/5/4 67/5/4 66/57/4
f 65/5/5 62/5/5 68/58/5
f 62/5/5 65/5/5 61/59/5
f 63/2/6 67/3/6 64/11/6
f 67/3/6 63/2/6 66/1/6
f 30/3/1 69/2/1 29/1/1
f 69/3/1 30/2/1 70/1/1
f 17/3/2 30/2/2 29/1/2
f 30/3/2 17/2/2 19/1/2
f 71/5/3 69/5/3 70/60/3
f 69/5/3 71/5/3 72/61/3
f 71/5/4 17/5/4 72/62/4
f 17/5/4 71/5/4 19/63/4
f 17/23/5 69/5/5 72/64/5
f 69/5/5 17/23/5 29/5/5
f 30/2/6 71/3/6 70/11/6
f 71/3/6 30/2/6 19/1/6
f 20/3/1 72/2/1 18/1/1
f 72/3/1 20/2/1 71/1/1
f 24/3/2 20/2/2 18/1/2
f 20/3/2 24/2/2 23/1/2
f 73/5/3 72/61/3 71/5/3
f 72/61/3 73/5/3 74/65/3
f 73/5/4 24/20/4 74/66/4
f 24/20/4 73/5/4 23/5/4
f 24/22/5 72/64/5 74/67/5
f 72/64/5 24/22/5 18/5/5
f 20/2/6 73/3/6 71/11/6
f 73/3/6 20/2/6 23/1/6

usemtl color2

f 42/3/1 44/2/1 41/1/1
f 44/3/1 42/2/1 43/1/1
f 45/3/2 42/2/2 41/1/2
f 42/3/2 45/2/2 47/1/2
f 48/42/3 44/37/3 43/5/3
f 44/37/3 48/42/3 46/5/3
f 48/5/4 45/5/4 46/68/4
f 45/5/4 48/5/4 47/69/4
f 45/47/5 44/40/5 46/5/5
f 44/40/5 45/47/5 41/5/5
f 42/2/6 48/3/6 43/11/6
f 48/3/6 42/2/6 47/1/6
f 58/3/1 60/2/1 57/1/1
f 60/3/1 58/2/1 59/1/1
f 61/3/2 58/2/2 57/1/2
f 58/3/2 61/2/2 63/1/2
f 64/54/3 60/49/3 59/5/3
f 60/49/3 64/54/3 62/5/3
f 64/5/4 61/5/4 62/70/4
f 61/5/4 64/5/4 63/71/4
f 61/59/5 60/52/5 62/5/5
f 60/52/5 61/59/5 57/5/5
f 58/2/6 64/3/6 59/11/6
f 64/3/6 58/2/6 63/1/6
f 28/3/1 75/2/1 26/1/1
f 75/3/1 28/2/1 76/1/1
f 32/3/2 28/2/2 26/1/2
f 28/3/2 32/2/2 31/1/2
f 70/60/3 75/5/3 76/72/3
f 75/5/3 70/60/3 69/5/3
f 70/5/4 32/28/4 69/73/4
f 32/28/4 70/5/4 31/5/4
f 32/30/5 75/5/5 69/5/5
f 75/5/5 32/30/5 26/5/5
f 28/2/6 70/3/6 76/11/6
f 70/3/6 28/2/6 31/1/6
f 23/3/1 74/2/1 24/1/1
f 74/3/1 23/2/1 73/1/1
f 36/3/2 23/2/2 24/1/2
f 23/3/2 36/2/2 35/1/2
f 77/5/3 74/65/3 73/5/3
f 74/65/3 77/5/3 78/74/3
f 77/5/4 36/33/4 78/75/4
f 36/33/4 77/5/4 35/5/4
f 36/35/5 74/67/5 78/76/5
f 74/67/5 36/35/5 24/22/5
f 23/2/6 77/3/6 73/11/6
f 77/3/6 23/2/6 35/1/6
f 81/3/1 80/2/1 79/1/1
f 80/3/1 81/2/1 82/1/1
f 83/3/2 81/2/2 79/1/2
f 81/3/2 83/2/2 84/1/2
f 85/5/3 80/5/3 82/77/3
f 80/5/3 85/5/3 86/78/3
f 85/5/4 83/5/4 86/79/4
f 83/5/4 85/5/4 84/80/4
f 83/5/5 80/5/5 86/81/5
f 80/5/5 83/5/5 79/82/5
f 81/2/6 85/3/6 82/11/6
f 85/3/6 81/2/6 84/1/6
f 89/3/1 88/2/1 87/1/1
f 88/3/1 89/2/1 90/1/1
f 91/3/2 89/2/2 87/1/2
f 89/3/2 91/2/2 92/1/2
f 82/77/3 88/5/3 90/83/3
f 88/5/3 82/77/3 80/5/3
f 82/5/4 91/5/4 80/84/4
f 91/5/4 82/5/4 92/85/4
f 91/5/5 88/5/5 80/5/5
f 88/5/5 91/5/5 87/86/5
f 89/2/6 82/3/6 90/11/6
f 82/3/6 89/2/6 92/1/6
f 94/3/1 86/2/1 93/1/1
f 86/3/1 94/2/1 85/1/1
f 95/3/2 94/2/2 93/1/2
f 94/3/2 95/2/2 96/1/2
f 97/5/3 86/78/3 85/5/3
f 86/78/3 97/5/3 98/87/3
f 97/5/4 95/5/4 98/88/4
f 95/5/4 97/5/4 96/89/4
f 95/5/5 86/81/5 98/90/5
f 86/81/5 95/5/5 93/91/5
f 94/2/6 97/3/6 85/11/6
f 97/3/6 94/2/6 96/1/6
f 101/3/1 100/2/1 99/1/1
f 100/3/1 101/2/1 102/1/1
f 103/3/2 101/2/2 99/1/2
f 101/3/2 103/2/2 104/1/2
f 105/5/3 100/5/3 102/92/3
f 100/5/3 105/5/3 106/93/3
f 105/5/4 103/5/4 106/94/4
f 103/5/4 105/5/4 104/95/4
f 103/5/5 100/5/5 106/96/5
f 100/5/5 103/5/5 99/97/5
f 101/2/6 105/3/6 102/11/6
f 105/3/6 101/2/6 104/1/6
f 109/3/1 108/2/1 107/1/1
f 108/3/1 109/2/1 110/1/1
f 111/3/2 109/2/2 107/1/2
f 109/3/2 111/2/2 112/1/2
f 102/92/3 108/5/3 110/98/3
f 108/5/3 102/92/3 100/5/3
f 102/5/4 111/5/4 100/99/4
f 111/5/4 102/5/4 112/100/4
f 111/5/5 108/5/5 100/5/5
f 108/5/5 111/5/5 107/101/5
f 109/2/6 102/3/6 110/11/6
f 102/3/6 109/2/6 112/1/6
f 114/3/1 106/2/1 113/1/1
f 106/3/1 114/2/1 105/1/1
f 115/3/2 114/2/2 113/1/2
f 114/3/2 115/2/2 116/1/2
f 117/5/3 106/93/3 105/5/3
f 106/93/3 117/5/3 118/102/3
f 117/5/4 115/5/4 118/103/4
f 115/5/4 117/5/4 116/104/4
f 115/5/5 106/96/5 118/105/5
f 106/96/5 115/5/5 113/106/5
f 114/2/6 117/3/6 105/11/6
f 117/3/6 114/2/6 116/1/6

usemtl color3

f 76/3/1 87/2/1 75/1/1
f 87/3/1 76/2/1 89/1/1
f 79/3/2 76/2/2 75/1/2
f 76/3/2 79/2/2 81/1/2
f 92/5/3 87/5/3 89/107/3
f 87/5/3 92/5/3 91/108/3
f 92/85/4 79/5/4 91/5/4
f 79/5/4 92/85/4 81/109/4
f 79/82/5 87/86/5 91/5/5
f 87/86/5 79/82/5 75/5/5
f 76/2/6 92/3/6 89/11/6
f 92/3/6 76/2/6 81/1/6
f 84/3/1 93/2/1 83/1/1
f 93/3/1 84/2/1 94/1/1
f 78/3/2 84/2/2 83/1/2
f 84/3/2 78/2/2 77/1/2
f 96/5/3 93/5/3 94/110/3
f 93/5/3 96/5/3 95/111/3
f 96/89/4 78/75/4 95/5/4
f 78/75/4 96/89/4 77/5/4
f 78/76/5 93/91/5 95/5/5
f 93/91/5 78/76/5 83/5/5
f 84/2/6 96/3/6 94/11/6
f 96/3/6 84/2/6 77/1/6
f 90/3/1 107/2/1 88/1/1
f 107/3/1 90/2/1 109/1/1
f 99/3/2 90/2/2 88/1/2
f 90/3/2 99/2/2 101/1/2
f 112/5/3 107/5/3 109/112/3
f 107/5/3 112/5/3 111/113/3
f 112/100/4 99/5/4 111/5/4
f 99/5/4 112/100/4 101/114/4
f 99/97/5 107/101/5 111/5/5
f 107/101/5 99/97/5 88/5/5
f 90/2/6 112/3/6 109/11/6
f 112/3/6 90/2/6 101/1/6
f 104/3/1 113/2/1 103/1/1
f 113/3/1 104/2/1 114/1/1
f 98/3/2 104/2/2 103/1/2
f 104/3/2 98/2/2 97/1/2
f 116/5/3 113/5/3 114/115/3
f 113/5/3 116/5/3 115/116/3
f 116/104/4 98/88/4 115/5/4
f 98/88/4 116/104/4 97/5/4
f 98/90/5 113/106/5 115/5/5
f 113/106/5 98/90/5 103/5/5
f 104/2/6 116/3/6 114/11/6
f 116/3/6 104/2/6 97/1/6

