# Created by Kenney (www.kenney.nl)

mtllib block.mtl

v 8 8 -4
v 8 -7 -4
v 8 8 4
v 8 -7 4
v 7 8 -4
v 7 8 4
v 7 -7 4
v 7 -7 -4
v 7 7 -4
v 7 7 4
v 5 8 -4
v 5 8 4
v 5 7 4
v 5 7 -4
v 5 8 -3.5
v 5 7 -3.5
v 5 8 3.5
v 5 7 3.5
v 4 8 -3.5
v 4 8 3.5
v 4 7 3.5
v 4 7 -3.5
v 4 8 -4
v 4 -8 -4
v 4 8 4
v 4 -8 4
v 3 8 -4
v 3 8 4
v 3 -8 4
v 3 -8 -4
v 3 7 -4
v 3 7 4
v -8 8 -4
v -8 8 4
v -8 7 4
v -8 7 -4
v 7 -3 -4
v 7 -3 4
v 6 7 -4
v 6 7 4
v 6 -3 4
v 6 -3 -4
v 6 6 -4
v 6 6 4
v 4 7 -4
v 4 7 4
v 4 6 4
v 4 6 -4
v 3 -6 -4
v 3 -6 4
v -1 7 -4
v -1 7 4
v -1 -6 4
v -1 -6 -4
v -1 6 -4
v -1 6 4
v -5 7 -4
v -5 7 4
v -5 6 4
v -5 6 -4
v -5 7 -3.5
v -5 6 -3.5
v -5 7 3.5
v -5 6 3.5
v -6 7 -3.5
v -6 7 3.5
v -6 6 3.5
v -6 6 -3.5
v -6 7 -4
v -6 -3 -4
v -6 7 4
v -6 -3 4
v -8 -3 4
v -8 -3 -4
v 6 4 -4
v 6 4 4
v 4 4 4
v 4 4 -4
v -1 -1 -4
v -1 -1 4
v -6 6 -4
v -6 6 4
v -6 -1 4
v -6 -1 -4
v 6 4 -3.5
v 6 3 -3.5
v 6 4 3.5
v 6 3 3.5
v 5 4 -3.5
v 5 4 3.5
v 5 3 3.5
v 5 3 -3.5
v 5 4 -4
v 5 -7 -4
v 5 4 4
v 5 -7 4
v 4 -7 4
v 4 -7 -4
v 6 3 -4
v 6 -8 -4
v 6 3 4
v 6 -8 4
v 5 3 -4
v 5 3 4
v 5 -8 4
v 5 -8 -4
v -1 -1 -3.5
v -1 -2 -3.5
v -1 -1 3.5
v -1 -2 3.5
v -2 -1 -3.5
v -2 -1 3.5
v -2 -2 3.5
v -2 -2 -3.5
v -2 -1 -4
v -2 -8 -4
v -2 -1 4
v -2 -8 4
v -6 -8 4
v -6 -8 -4
v -1 -2 -4
v -1 -7 -4
v -1 -2 4
v -1 -7 4
v -2 -2 -4
v -2 -2 4
v -2 -7 4
v -2 -7 -4
v 7 -3 -3.5
v 7 -4 -3.5
v 7 -3 3.5
v 7 -4 3.5
v 6 -3 -3.5
v 6 -3 3.5
v 6 -4 3.5
v 6 -4 -3.5
v -6 -3 -3.5
v -6 -4 -3.5
v -6 -3 3.5
v -6 -4 3.5
v -7 -3 -3.5
v -7 -3 3.5
v -7 -4 3.5
v -7 -4 -3.5
v -7 -3 -4
v -7 -8 -4
v -7 -3 4
v -7 -8 4
v -8 -8 4
v -8 -8 -4
v 7 -4 -4
v 7 -8 -4
v 7 -4 4
v 7 -8 4
v 6 -4 -4
v 6 -4 4
v -6 -4 -4
v -6 -7 -4
v -6 -4 4
v -6 -7 4
v -7 -4 -4
v -7 -4 4
v -7 -7 4
v -7 -7 -4
v 2 -6 -4
v 2 -8 -4
v 2 -6 4
v 2 -8 4
v 1 -6 -4
v 1 -6 4
v 1 -8 4
v 1 -8 -4
v 1 -7 -4
v 1 -7 4
v 3 -7 -4
v 3 -7 4
v 2 -7 -4
v 2 -7 4
v 0 -7 -4
v 0 -8 -4
v 0 -7 4
v 0 -8 4
v -1 -8 4
v -1 -8 -4
v 3 -6 -3.5
v 3 -7 -3.5
v 3 -6 3.5
v 3 -7 3.5
v 2 -6 -3.5
v 2 -6 3.5
v 2 -7 3.5
v 2 -7 -3.5
v 8 -7 -3.5
v 8 -8 -3.5
v 8 -7 3.5
v 8 -8 3.5
v 7 -7 -3.5
v 7 -7 3.5
v 7 -8 3.5
v 7 -8 -3.5
v 5 -7 -3.5
v 5 -8 -3.5
v 5 -7 3.5
v 5 -8 3.5
v 4 -7 -3.5
v 4 -7 3.5
v 4 -8 3.5
v 4 -8 -3.5
v 1 -7 -3.5
v 1 -8 -3.5
v 1 -7 3.5
v 1 -8 3.5
v 0 -7 -3.5
v 0 -7 3.5
v 0 -8 3.5
v 0 -8 -3.5
v -1 -7 -3.5
v -1 -8 -3.5
v -1 -7 3.5
v -1 -8 3.5
v -2 -7 -3.5
v -2 -7 3.5
v -2 -8 3.5
v -2 -8 -3.5
v -6 -7 -3.5
v -6 -8 -3.5
v -6 -7 3.5
v -6 -8 3.5
v -7 -7 -3.5
v -7 -7 3.5
v -7 -8 3.5
v -7 -8 -3.5

vn 1 0 0
vn 0 1 0
vn 0 -1 0
vn -1 0 0
vn 0 0 -1
vn 0 0 1

vt -19.68504 19.68504
vt 19.68504 19.68504
vt -19.68504 -19.68504
vt 0 NaN
vt 0 0
vt 0 NaN
vt 0 NaN
vt 0 NaN
vt 0 NaN
vt 0 NaN
vt 19.68504 -19.68504
vt 0 NaN
vt 0 NaN
vt 0 NaN
vt 0 NaN
vt 0 NaN
vt 0 NaN
vt 0 NaN
vt 0 NaN
vt 0 NaN
vt 0 NaN
vt 0 NaN
vt 0 NaN
vt 0 NaN
vt 0 NaN
vt 0 NaN
vt 0 NaN
vt 0 NaN
vt 0 NaN
vt 0 NaN
vt 0 NaN
vt 0 NaN
vt 0 NaN
vt 0 NaN
vt 0 NaN
vt 0 NaN
vt 0 NaN
vt 0 NaN
vt 0 NaN
vt 0 NaN
vt 0 NaN
vt 0 NaN
vt 0 NaN
vt 0 NaN
vt 0 NaN
vt 0 NaN
vt 0 NaN
vt 0 NaN
vt 0 NaN
vt 0 NaN
vt 0 NaN
vt 0 NaN
vt 0 NaN
vt 0 NaN
vt 0 NaN
vt 0 NaN
vt 0 NaN
vt 0 NaN
vt 0 NaN
vt 0 NaN
vt 0 NaN
vt 0 NaN
vt 0 NaN
vt 0 NaN
vt 0 NaN
vt 0 NaN
vt 0 NaN
vt 0 NaN
vt 0 NaN
vt 0 NaN
vt 0 NaN
vt 0 NaN
vt 0 NaN
vt 0 NaN
vt 0 NaN
vt 0 NaN
vt 0 NaN
vt 0 NaN
vt 0 NaN
vt 0 NaN
vt 0 NaN
vt 0 NaN
vt 0 NaN
vt 0 NaN
vt 0 NaN
vt 0 NaN
vt 0 NaN
vt 0 NaN
vt 0 NaN
vt 0 NaN
vt 0 NaN
vt 0 NaN
vt 0 NaN
vt 0 NaN
vt 0 NaN
vt 0 NaN
vt 0 NaN
vt 0 NaN
vt 0 NaN
vt 0 NaN
vt 0 NaN
vt 0 NaN
vt 0 NaN
vt 0 NaN
vt 0 NaN
vt 0 NaN
vt 0 NaN
vt 0 NaN
vt 0 NaN
vt 0 NaN
vt 0 NaN
vt 0 NaN
vt 0 NaN
vt 0 NaN
vt 0 NaN
vt 0 NaN
vt 0 NaN
vt 0 NaN
vt 0 NaN
vt 0 NaN
vt 0 NaN
vt 0 NaN
vt 0 NaN
vt 0 NaN
vt 0 NaN
vt 0 NaN
vt 0 NaN
vt 0 NaN
vt 0 NaN
vt 0 NaN
vt 0 NaN
vt 0 NaN
vt 0 NaN
vt 0 NaN
vt 0 NaN
vt 0 NaN
vt 0 NaN
vt 0 NaN
vt 0 NaN
vt 0 NaN
vt 0 NaN
vt 0 NaN
vt 0 NaN
vt 0 NaN
vt 0 NaN
vt 0 NaN
vt 0 NaN
vt 0 NaN
vt 0 NaN
vt 0 NaN
vt 0 NaN
vt 0 NaN
vt 0 NaN
vt 0 NaN
vt 0 NaN
vt 0 NaN
vt 0 NaN
vt 0 NaN
vt 0 NaN
vt 0 NaN
vt 0 NaN
vt 0 NaN
vt 0 NaN
vt 0 NaN
vt 0 NaN
vt 0 NaN
vt 0 NaN
vt 0 NaN
vt 0 NaN
vt 0 NaN
vt 0 NaN
vt 0 NaN
vt 0 NaN
vt 0 NaN
vt 0 NaN
vt 0 NaN
vt 0 NaN
vt 0 NaN
vt 0 NaN
vt 0 NaN
vt 0 NaN
vt 0 NaN
vt 0 NaN
vt 0 NaN
vt 0 NaN
vt 0 NaN

usemtl color12

f 3/3/1 2/2/1 1/1/1
f 2/3/1 3/2/1 4/1/1
f 5/3/2 3/2/2 1/1/2
f 3/3/2 5/2/2 6/1/2
f 7/5/3 2/5/3 4/4/3
f 2/5/3 7/5/3 8/6/3
f 7/5/4 5/5/4 8/7/4
f 5/5/4 7/5/4 6/8/4
f 5/5/5 2/5/5 8/9/5
f 2/5/5 5/5/5 1/10/5
f 3/2/6 7/3/6 4/11/6
f 7/3/6 3/2/6 6/1/6
f 6/3/1 9/2/1 5/1/1
f 9/3/1 6/2/1 10/1/1
f 11/3/2 6/2/2 5/1/2
f 6/3/2 11/2/2 12/1/2
f 13/5/3 9/5/3 10/12/3
f 9/5/3 13/5/3 14/13/3
f 13/5/4 11/5/4 14/14/4
f 11/5/4 13/5/4 12/15/4
f 11/5/5 9/5/5 14/16/5
f 9/5/5 11/5/5 5/5/5
f 6/2/6 13/3/6 10/11/6
f 13/3/6 6/2/6 12/1/6
f 17/3/1 16/2/1 15/1/1
f 16/3/1 17/2/1 18/1/1
f 19/3/2 17/2/2 15/1/2
f 17/3/2 19/2/2 20/1/2
f 21/5/3 16/5/3 18/17/3
f 16/5/3 21/5/3 22/18/3
f 21/5/4 19/5/4 22/19/4
f 19/5/4 21/5/4 20/20/4
f 19/5/5 16/5/5 22/21/5
f 16/5/5 19/5/5 15/22/5
f 17/2/6 21/3/6 18/11/6
f 21/3/6 17/2/6 20/1/6
f 25/3/1 24/2/1 23/1/1
f 24/3/1 25/2/1 26/1/1
f 27/3/2 25/2/2 23/1/2
f 25/3/2 27/2/2 28/1/2
f 29/5/3 24/5/3 26/23/3
f 24/5/3 29/5/3 30/24/3
f 29/5/4 27/5/4 30/25/4
f 27/5/4 29/5/4 28/26/4
f 27/5/5 24/5/5 30/27/5
f 24/5/5 27/5/5 23/28/5
f 25/2/6 29/3/6 26/11/6
f 29/3/6 25/2/6 28/1/6
f 28/3/1 31/2/1 27/1/1
f 31/3/1 28/2/1 32/1/1
f 33/3/2 28/2/2 27/1/2
f 28/3/2 33/2/2 34/1/2
f 35/5/3 31/5/3 32/29/3
f 31/5/3 35/5/3 36/30/3
f 35/5/4 33/5/4 36/31/4
f 33/5/4 35/5/4 34/32/4
f 33/5/5 31/5/5 36/33/5
f 31/5/5 33/5/5 27/5/5
f 28/2/6 35/3/6 32/11/6
f 35/3/6 28/2/6 34/1/6
f 10/3/1 37/2/1 9/1/1
f 37/3/1 10/2/1 38/1/1
f 39/3/2 10/2/2 9/1/2
f 10/3/2 39/2/2 40/1/2
f 41/5/3 37/5/3 38/34/3
f 37/5/3 41/5/3 42/35/3
f 41/5/4 39/5/4 42/36/4
f 39/5/4 41/5/4 40/37/4
f 39/5/5 37/5/5 42/38/5
f 37/5/5 39/5/5 9/5/5
f 10/2/6 41/3/6 38/11/6
f 41/3/6 10/2/6 40/1/6
f 40/3/1 43/2/1 39/1/1
f 43/3/1 40/2/1 44/1/1
f 45/3/2 40/2/2 39/1/2
f 40/3/2 45/2/2 46/1/2
f 47/5/3 43/5/3 44/39/3
f 43/5/3 47/5/3 48/40/3
f 47/5/4 45/5/4 48/41/4
f 45/5/4 47/5/4 46/42/4
f 45/5/5 43/5/5 48/43/5
f 43/5/5 45/5/5 39/5/5
f 40/2/6 47/3/6 44/11/6
f 47/3/6 40/2/6 46/1/6
f 32/3/1 49/2/1 31/1/1
f 49/3/1 32/2/1 50/1/1
f 51/3/2 32/2/2 31/1/2
f 32/3/2 51/2/2 52/1/2
f 53/5/3 49/5/3 50/44/3
f 49/5/3 53/5/3 54/45/3
f 53/5/4 51/5/4 54/46/4
f 51/5/4 53/5/4 52/47/4
f 51/5/5 49/5/5 54/48/5
f 49/5/5 51/5/5 31/5/5
f 32/2/6 53/3/6 50/11/6
f 53/3/6 32/2/6 52/1/6
f 52/3/1 55/2/1 51/1/1
f 55/3/1 52/2/1 56/1/1
f 57/3/2 52/2/2 51/1/2
f 52/3/2 57/2/2 58/1/2
f 59/5/3 55/5/3 56/49/3
f 55/5/3 59/5/3 60/50/3
f 59/5/4 57/5/4 60/51/4
f 57/5/4 59/5/4 58/52/4
f 57/5/5 55/5/5 60/53/5
f 55/5/5 57/5/5 51/5/5
f 52/2/6 59/3/6 56/11/6
f 59/3/6 52/2/6 58/1/6
f 63/3/1 62/2/1 61/1/1
f 62/3/1 63/2/1 64/1/1
f 65/3/2 63/2/2 61/1/2
f 63/3/2 65/2/2 66/1/2
f 67/5/3 62/5/3 64/54/3
f 62/5/3 67/5/3 68/55/3
f 67/5/4 65/5/4 68/56/4
f 65/5/4 67/5/4 66/57/4
f 65/5/5 62/5/5 68/58/5
f 62/5/5 65/5/5 61/59/5
f 63/2/6 67/3/6 64/11/6
f 67/3/6 63/2/6 66/1/6
f 71/3/1 70/2/1 69/1/1
f 70/3/1 71/2/1 72/1/1
f 36/3/2 71/2/2 69/1/2
f 71/3/2 36/2/2 35/1/2
f 73/5/3 70/5/3 72/60/3
f 70/5/3 73/5/3 74/61/3
f 73/5/4 36/31/4 74/62/4
f 36/31/4 73/5/4 35/5/4
f 36/33/5 70/5/5 74/63/5
f 70/5/5 36/33/5 69/64/5
f 71/2/6 73/3/6 72/11/6
f 73/3/6 71/2/6 35/1/6
f 44/3/1 75/2/1 43/1/1
f 75/3/1 44/2/1 76/1/1
f 48/3/2 44/2/2 43/1/2
f 44/3/2 48/2/2 47/1/2
f 77/5/3 75/5/3 76/65/3
f 75/5/3 77/5/3 78/66/3
f 77/5/4 48/41/4 78/67/4
f 48/41/4 77/5/4 47/5/4
f 48/43/5 75/5/5 78/68/5
f 75/5/5 48/43/5 43/5/5
f 44/2/6 77/3/6 76/11/6
f 77/3/6 44/2/6 47/1/6
f 56/3/1 79/2/1 55/1/1
f 79/3/1 56/2/1 80/1/1
f 81/3/2 56/2/2 55/1/2
f 56/3/2 81/2/2 82/1/2
f 83/5/3 79/5/3 80/69/3
f 79/5/3 83/5/3 84/70/3
f 83/5/4 81/5/4 84/71/4
f 81/5/4 83/5/4 82/72/4
f 81/5/5 79/5/5 84/73/5
f 79/5/5 81/5/5 55/5/5
f 56/2/6 83/3/6 80/11/6
f 83/3/6 56/2/6 82/1/6
f 87/3/1 86/2/1 85/1/1
f 86/3/1 87/2/1 88/1/1
f 89/3/2 87/2/2 85/1/2
f 87/3/2 89/2/2 90/1/2
f 91/5/3 86/5/3 88/74/3
f 86/5/3 91/5/3 92/75/3
f 91/5/4 89/5/4 92/76/4
f 89/5/4 91/5/4 90/77/4
f 89/5/5 86/5/5 92/78/5
f 86/5/5 89/5/5 85/79/5
f 87/2/6 91/3/6 88/11/6
f 91/3/6 87/2/6 90/1/6
f 95/3/1 94/2/1 93/1/1
f 94/3/1 95/2/1 96/1/1
f 78/3/2 95/2/2 93/1/2
f 95/3/2 78/2/2 77/1/2
f 97/5/3 94/5/3 96/80/3
f 94/5/3 97/5/3 98/81/3
f 97/5/4 78/67/4 98/82/4
f 78/67/4 97/5/4 77/5/4
f 78/68/5 94/5/5 98/83/5
f 94/5/5 78/68/5 93/84/5
f 95/2/6 97/3/6 96/11/6
f 97/3/6 95/2/6 77/1/6
f 101/3/1 100/2/1 99/1/1
f 100/3/1 101/2/1 102/1/1
f 103/3/2 101/2/2 99/1/2
f 101/3/2 103/2/2 104/1/2
f 105/5/3 100/5/3 102/85/3
f 100/5/3 105/5/3 106/86/3
f 105/5/4 103/5/4 106/87/4
f 103/5/4 105/5/4 104/88/4
f 103/5/5 100/5/5 106/89/5
f 100/5/5 103/5/5 99/90/5
f 101/2/6 105/3/6 102/11/6
f 105/3/6 101/2/6 104/1/6
f 109/3/1 108/2/1 107/1/1
f 108/3/1 109/2/1 110/1/1
f 111/3/2 109/2/2 107/1/2
f 109/3/2 111/2/2 112/1/2
f 113/5/3 108/5/3 110/91/3
f 108/5/3 113/5/3 114/92/3
f 113/5/4 111/5/4 114/93/4
f 111/5/4 113/5/4 112/94/4
f 111/5/5 108/5/5 114/95/5
f 108/5/5 111/5/5 107/96/5
f 109/2/6 113/3/6 110/11/6
f 113/3/6 109/2/6 112/1/6
f 117/3/1 116/2/1 115/1/1
f 116/3/1 117/2/1 118/1/1
f 84/3/2 117/2/2 115/1/2
f 117/3/2 84/2/2 83/1/2
f 119/5/3 116/5/3 118/97/3
f 116/5/3 119/5/3 120/98/3
f 119/5/4 84/71/4 120/99/4
f 84/71/4 119/5/4 83/5/4
f 84/73/5 116/5/5 120/100/5
f 116/5/5 84/73/5 115/101/5
f 117/2/6 119/3/6 118/11/6
f 119/3/6 117/2/6 83/1/6
f 123/3/1 122/2/1 121/1/1
f 122/3/1 123/2/1 124/1/1
f 125/3/2 123/2/2 121/1/2
f 123/3/2 125/2/2 126/1/2
f 127/5/3 122/5/3 124/102/3
f 122/5/3 127/5/3 128/103/3
f 127/5/4 125/5/4 128/104/4
f 125/5/4 127/5/4 126/105/4
f 125/5/5 122/5/5 128/106/5
f 122/5/5 125/5/5 121/107/5
f 123/2/6 127/3/6 124/11/6
f 127/3/6 123/2/6 126/1/6
f 131/3/1 130/2/1 129/1/1
f 130/3/1 131/2/1 132/1/1
f 133/3/2 131/2/2 129/1/2
f 131/3/2 133/2/2 134/1/2
f 135/5/3 130/5/3 132/108/3
f 130/5/3 135/5/3 136/109/3
f 135/5/4 133/5/4 136/110/4
f 133/5/4 135/5/4 134/111/4
f 133/5/5 130/5/5 136/112/5
f 130/5/5 133/5/5 129/113/5
f 131/2/6 135/3/6 132/11/6
f 135/3/6 131/2/6 134/1/6
f 139/3/1 138/2/1 137/1/1
f 138/3/1 139/2/1 140/1/1
f 141/3/2 139/2/2 137/1/2
f 139/3/2 141/2/2 142/1/2
f 143/5/3 138/5/3 140/114/3
f 138/5/3 143/5/3 144/115/3
f 143/5/4 141/5/4 144/116/4
f 141/5/4 143/5/4 142/117/4
f 141/5/5 138/5/5 144/118/5
f 138/5/5 141/5/5 137/119/5
f 139/2/6 143/3/6 140/11/6
f 143/3/6 139/2/6 142/1/6
f 147/3/1 146/2/1 145/1/1
f 146/3/1 147/2/1 148/1/1
f 74/3/2 147/2/2 145/1/2
f 147/3/2 74/2/2 73/1/2
f 149/5/3 146/5/3 148/120/3
f 146/5/3 149/5/3 150/121/3
f 149/5/4 74/62/4 150/122/4
f 74/62/4 149/5/4 73/5/4
f 74/63/5 146/5/5 150/123/5
f 146/5/5 74/63/5 145/124/5
f 147/2/6 149/3/6 148/11/6
f 149/3/6 147/2/6 73/1/6
f 153/3/1 152/2/1 151/1/1
f 152/3/1 153/2/1 154/1/1
f 155/3/2 153/2/2 151/1/2
f 153/3/2 155/2/2 156/1/2
f 102/85/3 152/5/3 154/125/3
f 152/5/3 102/85/3 100/5/3
f 102/5/4 155/5/4 100/126/4
f 155/5/4 102/5/4 156/127/4
f 155/5/5 152/5/5 100/5/5
f 152/5/5 155/5/5 151/128/5
f 153/2/6 102/3/6 154/11/6
f 102/3/6 153/2/6 156/1/6
f 159/3/1 158/2/1 157/1/1
f 158/3/1 159/2/1 160/1/1
f 161/3/2 159/2/2 157/1/2
f 159/3/2 161/2/2 162/1/2
f 163/5/3 158/5/3 160/129/3
f 158/5/3 163/5/3 164/130/3
f 163/5/4 161/5/4 164/131/4
f 161/5/4 163/5/4 162/132/4
f 161/5/5 158/5/5 164/133/5
f 158/5/5 161/5/5 157/134/5
f 159/2/6 163/3/6 160/11/6
f 163/3/6 159/2/6 162/1/6
f 167/3/1 166/2/1 165/1/1
f 166/3/1 167/2/1 168/1/1
f 169/3/2 167/2/2 165/1/2
f 167/3/2 169/2/2 170/1/2
f 171/5/3 166/5/3 168/135/3
f 166/5/3 171/5/3 172/136/3
f 171/5/4 169/5/4 172/137/4
f 169/5/4 171/5/4 170/138/4
f 169/5/5 166/5/5 172/139/5
f 166/5/5 169/5/5 165/140/5
f 167/2/6 171/3/6 168/11/6
f 171/3/6 167/2/6 170/1/6
f 170/3/1 173/2/1 169/1/1
f 173/3/1 170/2/1 174/1/1
f 54/3/2 170/2/2 169/1/2
f 170/3/2 54/2/2 53/1/2
f 124/102/3 173/5/3 174/141/3
f 173/5/3 124/102/3 122/5/3
f 124/5/4 54/46/4 122/142/4
f 54/46/4 124/5/4 53/5/4
f 54/48/5 173/5/5 122/5/5
f 173/5/5 54/48/5 169/5/5
f 170/2/6 124/3/6 174/11/6
f 124/3/6 170/2/6 53/1/6
f 176/3/1 30/2/1 175/1/1
f 30/3/1 176/2/1 29/1/1
f 177/3/2 176/2/2 175/1/2
f 176/3/2 177/2/2 178/1/2
f 168/135/3 30/24/3 29/5/3
f 30/24/3 168/135/3 166/5/3
f 168/5/4 177/5/4 166/143/4
f 177/5/4 168/5/4 178/144/4
f 177/5/5 30/27/5 166/5/5
f 30/27/5 177/5/5 175/145/5
f 176/2/6 168/3/6 29/11/6
f 168/3/6 176/2/6 178/1/6
f 181/3/1 180/2/1 179/1/1
f 180/3/1 181/2/1 182/1/1
f 122/3/2 181/2/2 179/1/2
f 181/3/2 122/2/2 124/1/2
f 183/5/3 180/5/3 182/146/3
f 180/5/3 183/5/3 184/147/3
f 183/5/4 122/142/4 184/148/4
f 122/142/4 183/5/4 124/5/4
f 122/5/5 180/5/5 184/149/5
f 180/5/5 122/5/5 179/150/5
f 181/2/6 183/3/6 182/11/6
f 183/3/6 181/2/6 124/1/6
f 6/3/1 9/2/1 5/1/1
f 9/3/1 6/2/1 10/1/1
f 11/3/2 6/2/2 5/1/2
f 6/3/2 11/2/2 12/1/2
f 13/5/3 9/5/3 10/12/3
f 9/5/3 13/5/3 14/13/3
f 13/5/4 11/5/4 14/14/4
f 11/5/4 13/5/4 12/15/4
f 11/5/5 9/5/5 14/16/5
f 9/5/5 11/5/5 5/5/5
f 6/2/6 13/3/6 10/11/6
f 13/3/6 6/2/6 12/1/6
f 28/3/1 31/2/1 27/1/1
f 31/3/1 28/2/1 32/1/1
f 33/3/2 28/2/2 27/1/2
f 28/3/2 33/2/2 34/1/2
f 35/5/3 31/5/3 32/29/3
f 31/5/3 35/5/3 36/30/3
f 35/5/4 33/5/4 36/31/4
f 33/5/4 35/5/4 34/32/4
f 33/5/5 31/5/5 36/33/5
f 31/5/5 33/5/5 27/5/5
f 28/2/6 35/3/6 32/11/6
f 35/3/6 28/2/6 34/1/6
f 40/3/1 43/2/1 39/1/1
f 43/3/1 40/2/1 44/1/1
f 45/3/2 40/2/2 39/1/2
f 40/3/2 45/2/2 46/1/2
f 47/5/3 43/5/3 44/39/3
f 43/5/3 47/5/3 48/40/3
f 47/5/4 45/5/4 48/41/4
f 45/5/4 47/5/4 46/42/4
f 45/5/5 43/5/5 48/43/5
f 43/5/5 45/5/5 39/5/5
f 40/2/6 47/3/6 44/11/6
f 47/3/6 40/2/6 46/1/6
f 52/3/1 55/2/1 51/1/1
f 55/3/1 52/2/1 56/1/1
f 57/3/2 52/2/2 51/1/2
f 52/3/2 57/2/2 58/1/2
f 59/5/3 55/5/3 56/49/3
f 55/5/3 59/5/3 60/50/3
f 59/5/4 57/5/4 60/51/4
f 57/5/4 59/5/4 58/52/4
f 57/5/5 55/5/5 60/53/5
f 55/5/5 57/5/5 51/5/5
f 52/2/6 59/3/6 56/11/6
f 59/3/6 52/2/6 58/1/6
f 170/3/1 173/2/1 169/1/1
f 173/3/1 170/2/1 174/1/1
f 54/3/2 170/2/2 169/1/2
f 170/3/2 54/2/2 53/1/2
f 124/102/3 173/5/3 174/141/3
f 173/5/3 124/102/3 122/5/3
f 124/5/4 54/46/4 122/142/4
f 54/46/4 124/5/4 53/5/4
f 54/48/5 173/5/5 122/5/5
f 173/5/5 54/48/5 169/5/5
f 170/2/6 124/3/6 174/11/6
f 124/3/6 170/2/6 53/1/6

usemtl color11

f 187/3/1 186/2/1 185/1/1
f 186/3/1 187/2/1 188/1/1
f 189/3/2 187/2/2 185/1/2
f 187/3/2 189/2/2 190/1/2
f 191/5/3 186/5/3 188/151/3
f 186/5/3 191/5/3 192/152/3
f 191/5/4 189/5/4 192/153/4
f 189/5/4 191/5/4 190/154/4
f 189/5/5 186/5/5 192/155/5
f 186/5/5 189/5/5 185/156/5
f 187/2/6 191/3/6 188/11/6
f 191/3/6 187/2/6 190/1/6
f 195/3/1 194/2/1 193/1/1
f 194/3/1 195/2/1 196/1/1
f 197/3/2 195/2/2 193/1/2
f 195/3/2 197/2/2 198/1/2
f 199/5/3 194/5/3 196/157/3
f 194/5/3 199/5/3 200/158/3
f 199/5/4 197/5/4 200/159/4
f 197/5/4 199/5/4 198/160/4
f 197/5/5 194/5/5 200/161/5
f 194/5/5 197/5/5 193/162/5
f 195/2/6 199/3/6 196/11/6
f 199/3/6 195/2/6 198/1/6
f 203/3/1 202/2/1 201/1/1
f 202/3/1 203/2/1 204/1/1
f 205/3/2 203/2/2 201/1/2
f 203/3/2 205/2/2 206/1/2
f 207/5/3 202/5/3 204/163/3
f 202/5/3 207/5/3 208/164/3
f 207/5/4 205/5/4 208/165/4
f 205/5/4 207/5/4 206/166/4
f 205/5/5 202/5/5 208/167/5
f 202/5/5 205/5/5 201/168/5
f 203/2/6 207/3/6 204/11/6
f 207/3/6 203/2/6 206/1/6
f 211/3/1 210/2/1 209/1/1
f 210/3/1 211/2/1 212/1/1
f 213/3/2 211/2/2 209/1/2
f 211/3/2 213/2/2 214/1/2
f 215/5/3 210/5/3 212/169/3
f 210/5/3 215/5/3 216/170/3
f 215/5/4 213/5/4 216/171/4
f 213/5/4 215/5/4 214/172/4
f 213/5/5 210/5/5 216/173/5
f 210/5/5 213/5/5 209/174/5
f 211/2/6 215/3/6 212/11/6
f 215/3/6 211/2/6 214/1/6
f 219/3/1 218/2/1 217/1/1
f 218/3/1 219/2/1 220/1/1
f 221/3/2 219/2/2 217/1/2
f 219/3/2 221/2/2 222/1/2
f 223/5/3 218/5/3 220/175/3
f 218/5/3 223/5/3 224/176/3
f 223/5/4 221/5/4 224/177/4
f 221/5/4 223/5/4 222/178/4
f 221/5/5 218/5/5 224/179/5
f 218/5/5 221/5/5 217/180/5
f 219/2/6 223/3/6 220/11/6
f 223/3/6 219/2/6 222/1/6
f 227/3/1 226/2/1 225/1/1
f 226/3/1 227/2/1 228/1/1
f 229/3/2 227/2/2 225/1/2
f 227/3/2 229/2/2 230/1/2
f 231/5/3 226/5/3 228/181/3
f 226/5/3 231/5/3 232/182/3
f 231/5/4 229/5/4 232/183/4
f 229/5/4 231/5/4 230/184/4
f 229/5/5 226/5/5 232/185/5
f 226/5/5 229/5/5 225/186/5
f 227/2/6 231/3/6 228/11/6
f 231/3/6 227/2/6 230/1/6

